<svg width="323" height="127" viewBox="0 0 323 127" fill="none" xmlns="http://www.w3.org/2000/svg">
<g clip-path="url(#clip0_5_4)">
<path d="M72.0181 18.8246L40.3197 0.512538C38.4654 -0.603021 36.9828 0.140609 36.9828 2.37218V41.4124L68.496 59.6315C70.3503 60.7468 70.3503 62.421 68.496 63.5354L40.3197 79.8025C38.4654 80.9178 36.9828 80.1742 36.9828 77.9428V41.4124L1.94643 61.6764C1.32643 61.9762 0.80988 62.4549 0.463047 63.0511C0.116215 63.6473 -0.0450784 64.3339 -0.00013709 65.0226V103.878C-0.0451402 104.566 0.116122 105.253 0.462956 105.849C0.809791 106.446 1.32638 106.924 1.94643 107.224L35.0358 126.373C35.6032 126.781 36.2839 127 36.9821 127C37.6804 127 38.361 126.781 38.9285 126.373L72.0181 107.224C72.638 106.924 73.1545 106.446 73.5013 105.849C73.8481 105.253 74.0094 104.567 73.9644 103.878V22.1708C74.0094 21.482 73.8482 20.7955 73.5014 20.1993C73.1546 19.603 72.638 19.1243 72.0181 18.8246Z" fill="#F85606"/>
<path d="M186.325 50.3766H180.179L186.551 30.6153C186.604 30.5012 186.626 30.375 186.614 30.2497C186.602 30.1244 186.557 30.0046 186.483 29.9028C186.409 29.801 186.309 29.7209 186.194 29.6709C186.079 29.6208 185.952 29.6026 185.828 29.6182H172.586C172.471 29.6066 172.354 29.621 172.244 29.6602C172.135 29.6994 172.036 29.7624 171.953 29.8448C171.871 29.9272 171.808 30.0268 171.769 30.1366C171.73 30.2463 171.716 30.3634 171.727 30.4793V33.8333C171.716 33.9493 171.73 34.0663 171.769 34.1761C171.808 34.2858 171.871 34.3854 171.953 34.4678C172.036 34.5502 172.135 34.6133 172.244 34.6525C172.354 34.6917 172.471 34.706 172.586 34.6944H178.009L171.592 54.4557C171.411 55.0449 171.728 55.4529 172.36 55.4529H186.325C186.441 55.4645 186.558 55.4501 186.667 55.411C186.777 55.3718 186.876 55.3087 186.958 55.2263C187.04 55.1439 187.103 55.0442 187.142 54.9345C187.181 54.8247 187.196 54.7076 187.184 54.5917V51.2378C187.196 51.1218 187.181 51.0047 187.142 50.8949C187.103 50.7851 187.04 50.6855 186.958 50.603C186.876 50.5206 186.776 50.4576 186.667 50.4184C186.557 50.3792 186.441 50.3649 186.325 50.3766Z" fill="#F85606"/>
<path d="M169.74 51.419V30.4793C169.751 30.3634 169.737 30.2463 169.698 30.1366C169.659 30.0269 169.596 29.9272 169.514 29.8448C169.431 29.7624 169.332 29.6994 169.223 29.6602C169.113 29.621 168.996 29.6067 168.881 29.6182H163.774C163.655 29.602 163.535 29.6127 163.421 29.6495C163.307 29.6863 163.203 29.7484 163.116 29.8311C163.029 29.9138 162.962 30.0149 162.919 30.1271C162.877 30.2394 162.86 30.3597 162.87 30.4793V32.2923H162.373C161.921 30.3887 160.565 29.3009 158.08 29.3009C154.329 29.3009 152.205 31.7484 152.205 39.8614V45.255C152.205 53.368 154.284 55.7701 158.08 55.7701C160.791 55.7701 162.283 54.5011 162.69 52.1439H163.232L163.819 54.682C163.857 54.9041 163.974 55.1049 164.149 55.2467C164.324 55.3885 164.544 55.4617 164.768 55.4526H169.514C170.147 55.4526 170.373 55.0446 170.282 54.5007L169.74 51.419ZM162.87 46.6147C162.87 49.9687 162.328 50.6939 161.017 50.6939C159.752 50.6939 159.209 49.9686 159.209 46.66V38.1391C159.209 34.7852 159.797 34.0599 161.017 34.0599C162.328 34.0599 162.87 34.7852 162.87 38.1844V46.6147Z" fill="#F85606"/>
<path d="M149.99 29.6635L145.064 33.1991H144.748V30.4793C144.759 30.3634 144.745 30.2463 144.706 30.1366C144.667 30.0269 144.604 29.9272 144.522 29.8448C144.44 29.7624 144.34 29.6994 144.231 29.6602C144.121 29.621 144.005 29.6067 143.889 29.6182H139.053C138.938 29.6067 138.821 29.621 138.711 29.6602C138.602 29.6994 138.503 29.7624 138.421 29.8448C138.338 29.9272 138.275 30.0269 138.236 30.1366C138.197 30.2463 138.183 30.3634 138.194 30.4793V54.5917C138.183 54.7077 138.197 54.8247 138.236 54.9345C138.275 55.0442 138.338 55.1439 138.42 55.2263C138.503 55.3087 138.602 55.3717 138.711 55.4109C138.821 55.4501 138.938 55.4645 139.053 55.4529H144.205C144.322 55.4684 144.44 55.4567 144.551 55.4189C144.663 55.3811 144.764 55.3181 144.847 55.2348C144.93 55.1516 144.992 55.0502 145.03 54.9387C145.068 54.8272 145.079 54.7084 145.064 54.5917V40.1333L150.487 36.2355C150.662 36.1257 150.804 35.9712 150.899 35.788C150.995 35.6048 151.04 35.3994 151.03 35.193V30.2074C151.03 29.5275 150.532 29.2556 149.99 29.6635Z" fill="#F85606"/>
<path d="M135.664 51.419V30.4793C135.676 30.3634 135.661 30.2463 135.622 30.1366C135.583 30.0269 135.52 29.9272 135.438 29.8448C135.356 29.7624 135.257 29.6994 135.147 29.6602C135.038 29.621 134.921 29.6067 134.805 29.6182H129.698C129.58 29.602 129.459 29.6127 129.345 29.6495C129.231 29.6864 129.127 29.7484 129.04 29.8311C128.954 29.9138 128.886 30.0149 128.844 30.1271C128.801 30.2394 128.784 30.3597 128.795 30.4793V32.2923H128.297C127.846 30.3887 126.49 29.3009 124.004 29.3009C120.253 29.3009 118.129 31.7484 118.129 39.8614V45.255C118.129 53.368 120.208 55.7701 124.004 55.7701C126.716 55.7701 128.207 54.5011 128.614 52.1439H129.156L129.744 54.682C129.782 54.9041 129.899 55.1049 130.073 55.2468C130.248 55.3886 130.468 55.4617 130.693 55.4526H135.438C136.071 55.4526 136.297 55.0446 136.207 54.5007L135.664 51.419ZM128.795 46.6147C128.795 49.9687 128.252 50.6939 126.942 50.6939C125.676 50.6939 125.134 49.9686 125.134 46.66V38.1391C125.134 34.7852 125.721 34.0599 126.942 34.0599C128.252 34.0599 128.795 34.7852 128.795 38.1844V46.6147Z" fill="#F85606"/>
<path d="M105.249 21.0066H97.8371C97.7207 20.9912 97.6023 21.0028 97.4911 21.0406C97.3799 21.0784 97.2789 21.1414 97.1959 21.2247C97.1128 21.3079 97.05 21.4092 97.0123 21.5208C96.9746 21.6323 96.963 21.751 96.9784 21.8678V54.5917C96.963 54.7085 96.9746 54.8272 97.0123 54.9387C97.05 55.0502 97.1128 55.1516 97.1959 55.2348C97.2789 55.3181 97.3799 55.3811 97.4911 55.4189C97.6023 55.4567 97.7207 55.4684 97.8371 55.4529H105.249C112.616 55.4529 116.005 52.0989 116.005 40.4959V35.9635C116.005 24.0433 112.39 21.0066 105.249 21.0066ZM108.774 43.6686C108.774 48.7453 107.825 49.742 105.43 49.742H104.074V26.5815H105.43C107.825 26.5815 108.774 27.4427 108.774 32.6549V43.6686Z" fill="#F85606"/>
<path d="M114.882 78.89V80.015C114.882 80.315 114.807 80.54 114.657 80.69C114.507 80.84 114.282 80.915 113.982 80.915H108.942C108.642 80.915 108.417 80.84 108.267 80.69C108.117 80.54 108.042 80.315 108.042 80.015V77.09C108.042 76.34 107.907 75.785 107.637 75.425C107.367 75.065 106.962 74.885 106.422 74.885C105.882 74.885 105.477 75.065 105.207 75.425C104.937 75.785 104.802 76.34 104.802 77.09V77.18C104.802 78.11 105.057 78.98 105.567 79.79C106.077 80.57 106.857 81.515 107.907 82.625L110.787 85.64C112.017 86.93 113.052 88.325 113.892 89.825C114.762 91.325 115.197 93.185 115.197 95.405V96.08C115.197 98.69 114.492 100.745 113.082 102.245C111.702 103.715 109.467 104.45 106.377 104.45C103.137 104.45 100.857 103.625 99.5368 101.975C98.2468 100.295 97.6018 97.76 97.6018 94.37V92.615C97.6018 92.315 97.6768 92.09 97.8268 91.94C97.9768 91.79 98.2018 91.715 98.5018 91.715H103.632C103.932 91.715 104.157 91.79 104.307 91.94C104.457 92.09 104.532 92.315 104.532 92.615V96.395C104.532 97.235 104.667 97.85 104.937 98.24C105.237 98.63 105.687 98.825 106.287 98.825C106.887 98.825 107.322 98.63 107.592 98.24C107.892 97.85 108.042 97.235 108.042 96.395V96.305C108.042 95.285 107.802 94.325 107.322 93.425C106.872 92.525 106.197 91.61 105.297 90.68L102.192 87.485C100.902 86.195 99.8368 84.86 98.9968 83.48C98.1568 82.07 97.7368 80.255 97.7368 78.035V77.36C97.7368 74.96 98.4268 73.025 99.8068 71.555C101.187 70.085 103.332 69.35 106.242 69.35C109.212 69.35 111.387 70.115 112.767 71.645C114.177 73.145 114.882 75.56 114.882 78.89ZM135.529 88.025V90.95C135.529 91.25 135.454 91.475 135.304 91.625C135.154 91.775 134.929 91.85 134.629 91.85H126.259V95.81C126.259 97.37 126.364 98.375 126.574 98.825C126.784 99.275 127.144 99.5 127.654 99.5C128.134 99.5 128.479 99.32 128.689 98.96C128.899 98.6 129.004 97.82 129.004 96.62V94.46C129.004 94.16 129.079 93.935 129.229 93.785C129.379 93.635 129.604 93.56 129.904 93.56H134.584C134.884 93.56 135.109 93.635 135.259 93.785C135.409 93.935 135.484 94.16 135.484 94.46V94.64C135.484 97.88 134.869 100.325 133.639 101.975C132.409 103.595 130.399 104.405 127.609 104.405C124.609 104.405 122.449 103.49 121.129 101.66C119.839 99.83 119.194 96.905 119.194 92.885V89.555C119.194 85.475 119.839 82.52 121.129 80.69C122.449 78.86 124.609 77.945 127.609 77.945C130.429 77.945 132.454 78.785 133.684 80.465C134.914 82.115 135.529 84.635 135.529 88.025ZM127.654 82.85C127.174 82.85 126.814 83.045 126.574 83.435C126.364 83.825 126.259 84.695 126.259 86.045V88.52H129.004V86.045C129.004 84.725 128.899 83.87 128.689 83.48C128.479 83.06 128.134 82.85 127.654 82.85ZM145.983 69.8C146.283 69.8 146.508 69.875 146.658 70.025C146.808 70.175 146.883 70.4 146.883 70.7V103.1C146.883 103.4 146.808 103.625 146.658 103.775C146.508 103.925 146.283 104 145.983 104H140.763C140.463 104 140.238 103.925 140.088 103.775C139.938 103.625 139.863 103.4 139.863 103.1V70.7C139.863 70.4 139.938 70.175 140.088 70.025C140.238 69.875 140.463 69.8 140.763 69.8H145.983ZM157.594 69.8C157.894 69.8 158.119 69.875 158.269 70.025C158.419 70.175 158.494 70.4 158.494 70.7V103.1C158.494 103.4 158.419 103.625 158.269 103.775C158.119 103.925 157.894 104 157.594 104H152.374C152.074 104 151.849 103.925 151.699 103.775C151.549 103.625 151.474 103.4 151.474 103.1V70.7C151.474 70.4 151.549 70.175 151.699 70.025C151.849 69.875 152.074 69.8 152.374 69.8H157.594ZM179.149 88.025V90.95C179.149 91.25 179.074 91.475 178.924 91.625C178.774 91.775 178.549 91.85 178.249 91.85H169.879V95.81C169.879 97.37 169.984 98.375 170.194 98.825C170.404 99.275 170.764 99.5 171.274 99.5C171.754 99.5 172.099 99.32 172.309 98.96C172.519 98.6 172.624 97.82 172.624 96.62V94.46C172.624 94.16 172.699 93.935 172.849 93.785C172.999 93.635 173.224 93.56 173.524 93.56H178.204C178.504 93.56 178.729 93.635 178.879 93.785C179.029 93.935 179.104 94.16 179.104 94.46V94.64C179.104 97.88 178.489 100.325 177.259 101.975C176.029 103.595 174.019 104.405 171.229 104.405C168.229 104.405 166.069 103.49 164.749 101.66C163.459 99.83 162.814 96.905 162.814 92.885V89.555C162.814 85.475 163.459 82.52 164.749 80.69C166.069 78.86 168.229 77.945 171.229 77.945C174.049 77.945 176.074 78.785 177.304 80.465C178.534 82.115 179.149 84.635 179.149 88.025ZM171.274 82.85C170.794 82.85 170.434 83.045 170.194 83.435C169.984 83.825 169.879 84.695 169.879 86.045V88.52H172.624V86.045C172.624 84.725 172.519 83.87 172.309 83.48C172.099 83.06 171.754 82.85 171.274 82.85ZM189.244 78.35C189.544 78.35 189.769 78.425 189.919 78.575C190.069 78.725 190.144 78.95 190.144 79.25V81.5H190.504L194.419 78.485C194.719 78.245 194.974 78.185 195.184 78.305C195.394 78.395 195.499 78.635 195.499 79.025V83.975C195.499 84.185 195.454 84.38 195.364 84.56C195.304 84.74 195.169 84.905 194.959 85.055L190.504 88.475V103.1C190.504 103.4 190.429 103.625 190.279 103.775C190.129 103.925 189.904 104 189.604 104H184.384C184.084 104 183.859 103.925 183.709 103.775C183.559 103.625 183.484 103.4 183.484 103.1V79.25C183.484 78.95 183.559 78.725 183.709 78.575C183.859 78.425 184.084 78.35 184.384 78.35H189.244ZM217.388 104.45C215.738 104.45 214.298 104.21 213.068 103.73C211.838 103.22 210.818 102.38 210.008 101.21C209.198 100.04 208.598 98.465 208.208 96.485C207.818 94.505 207.623 92.045 207.623 89.105V84.695C207.623 81.725 207.818 79.25 208.208 77.27C208.628 75.29 209.243 73.715 210.053 72.545C210.863 71.375 211.883 70.55 213.113 70.07C214.343 69.59 215.768 69.35 217.388 69.35C220.418 69.35 222.683 70.25 224.183 72.05C225.713 73.82 226.478 76.94 226.478 81.41V82.85C226.478 83.15 226.403 83.375 226.253 83.525C226.103 83.675 225.878 83.75 225.578 83.75H220.133C219.833 83.75 219.608 83.675 219.458 83.525C219.308 83.375 219.233 83.15 219.233 82.85V80.645C219.233 79.505 219.203 78.59 219.143 77.9C219.083 77.18 218.978 76.64 218.828 76.28C218.708 75.89 218.528 75.635 218.288 75.515C218.048 75.395 217.733 75.335 217.343 75.335C216.953 75.335 216.623 75.395 216.353 75.515C216.113 75.635 215.918 75.89 215.768 76.28C215.648 76.64 215.558 77.18 215.498 77.9C215.468 78.59 215.453 79.505 215.453 80.645V93.2C215.453 95.42 215.573 96.845 215.813 97.475C216.083 98.105 216.593 98.42 217.343 98.42C218.093 98.42 218.588 98.105 218.828 97.475C219.098 96.845 219.233 95.42 219.233 93.2V90.365C219.233 90.065 219.308 89.84 219.458 89.69C219.608 89.54 219.833 89.465 220.133 89.465H225.578C225.878 89.465 226.103 89.54 226.253 89.69C226.403 89.84 226.478 90.065 226.478 90.365V91.895C226.478 96.455 225.743 99.695 224.273 101.615C222.803 103.505 220.508 104.45 217.388 104.45ZM246.948 88.025V90.95C246.948 91.25 246.873 91.475 246.723 91.625C246.573 91.775 246.348 91.85 246.048 91.85H237.678V95.81C237.678 97.37 237.783 98.375 237.993 98.825C238.203 99.275 238.563 99.5 239.073 99.5C239.553 99.5 239.898 99.32 240.108 98.96C240.318 98.6 240.423 97.82 240.423 96.62V94.46C240.423 94.16 240.498 93.935 240.648 93.785C240.798 93.635 241.023 93.56 241.323 93.56H246.003C246.303 93.56 246.528 93.635 246.678 93.785C246.828 93.935 246.903 94.16 246.903 94.46V94.64C246.903 97.88 246.288 100.325 245.058 101.975C243.828 103.595 241.818 104.405 239.028 104.405C236.028 104.405 233.868 103.49 232.548 101.66C231.258 99.83 230.613 96.905 230.613 92.885V89.555C230.613 85.475 231.258 82.52 232.548 80.69C233.868 78.86 236.028 77.945 239.028 77.945C241.848 77.945 243.873 78.785 245.103 80.465C246.333 82.115 246.948 84.635 246.948 88.025ZM239.073 82.85C238.593 82.85 238.233 83.045 237.993 83.435C237.783 83.825 237.678 84.695 237.678 86.045V88.52H240.423V86.045C240.423 84.725 240.318 83.87 240.108 83.48C239.898 83.06 239.553 82.85 239.073 82.85ZM261.812 104C261.512 104 261.287 103.925 261.137 103.775C260.987 103.625 260.912 103.4 260.912 103.1V84.695C260.912 84.125 260.807 83.72 260.597 83.48C260.417 83.21 260.132 83.075 259.742 83.075C259.262 83.075 258.902 83.285 258.662 83.705C258.422 84.125 258.302 84.755 258.302 85.595V103.1C258.302 103.4 258.227 103.625 258.077 103.775C257.927 103.925 257.702 104 257.402 104H252.182C251.882 104 251.657 103.925 251.507 103.775C251.357 103.625 251.282 103.4 251.282 103.1V79.25C251.282 78.95 251.357 78.725 251.507 78.575C251.657 78.425 251.882 78.35 252.182 78.35H257.042C257.342 78.35 257.567 78.425 257.717 78.575C257.867 78.725 257.942 78.95 257.942 79.25V81.5H258.482C258.752 80.33 259.232 79.46 259.922 78.89C260.612 78.29 261.602 77.99 262.892 77.99C264.422 77.99 265.637 78.515 266.537 79.565C267.467 80.615 267.932 82.265 267.932 84.515V103.1C267.932 103.4 267.857 103.625 267.707 103.775C267.557 103.925 267.332 104 267.032 104H261.812ZM283.546 98.735C283.846 98.735 284.071 98.81 284.221 98.96C284.371 99.11 284.446 99.335 284.446 99.635V103.1C284.446 103.4 284.371 103.625 284.221 103.775C284.071 103.925 283.846 104 283.546 104H279.541C277.621 104 276.181 103.475 275.221 102.425C274.261 101.345 273.781 99.875 273.781 98.015V83.615H272.341C272.041 83.615 271.816 83.54 271.666 83.39C271.516 83.24 271.441 83.015 271.441 82.715V79.25C271.441 78.95 271.516 78.725 271.666 78.575C271.816 78.425 272.041 78.35 272.341 78.35H273.871V75.695C273.871 75.455 273.916 75.245 274.006 75.065C274.126 74.885 274.291 74.735 274.501 74.615L279.721 71.735C280.021 71.585 280.276 71.57 280.486 71.69C280.696 71.81 280.801 72.035 280.801 72.365V78.35H283.546C283.846 78.35 284.071 78.425 284.221 78.575C284.371 78.725 284.446 78.95 284.446 79.25V82.715C284.446 83.015 284.371 83.24 284.221 83.39C284.071 83.54 283.846 83.615 283.546 83.615H280.801V97.565C280.801 97.955 280.891 98.255 281.071 98.465C281.251 98.645 281.566 98.735 282.016 98.735H283.546ZM303.664 88.025V90.95C303.664 91.25 303.589 91.475 303.439 91.625C303.289 91.775 303.064 91.85 302.764 91.85H294.394V95.81C294.394 97.37 294.499 98.375 294.709 98.825C294.919 99.275 295.279 99.5 295.789 99.5C296.269 99.5 296.614 99.32 296.824 98.96C297.034 98.6 297.139 97.82 297.139 96.62V94.46C297.139 94.16 297.214 93.935 297.364 93.785C297.514 93.635 297.739 93.56 298.039 93.56H302.719C303.019 93.56 303.244 93.635 303.394 93.785C303.544 93.935 303.619 94.16 303.619 94.46V94.64C303.619 97.88 303.004 100.325 301.774 101.975C300.544 103.595 298.534 104.405 295.744 104.405C292.744 104.405 290.584 103.49 289.264 101.66C287.974 99.83 287.329 96.905 287.329 92.885V89.555C287.329 85.475 287.974 82.52 289.264 80.69C290.584 78.86 292.744 77.945 295.744 77.945C298.564 77.945 300.589 78.785 301.819 80.465C303.049 82.115 303.664 84.635 303.664 88.025ZM295.789 82.85C295.309 82.85 294.949 83.045 294.709 83.435C294.499 83.825 294.394 84.695 294.394 86.045V88.52H297.139V86.045C297.139 84.725 297.034 83.87 296.824 83.48C296.614 83.06 296.269 82.85 295.789 82.85ZM313.758 78.35C314.058 78.35 314.283 78.425 314.433 78.575C314.583 78.725 314.658 78.95 314.658 79.25V81.5H315.018L318.933 78.485C319.233 78.245 319.488 78.185 319.698 78.305C319.908 78.395 320.013 78.635 320.013 79.025V83.975C320.013 84.185 319.968 84.38 319.878 84.56C319.818 84.74 319.683 84.905 319.473 85.055L315.018 88.475V103.1C315.018 103.4 314.943 103.625 314.793 103.775C314.643 103.925 314.418 104 314.118 104H308.898C308.598 104 308.373 103.925 308.223 103.775C308.073 103.625 307.998 103.4 307.998 103.1V79.25C307.998 78.95 308.073 78.725 308.223 78.575C308.373 78.425 308.598 78.35 308.898 78.35H313.758Z" fill="#F85606"/>
</g>
<defs>
<clipPath id="clip0_5_4">
<rect width="323" height="127" fill="white"/>
</clipPath>
</defs>
</svg>
